<mxfile host="app.diagrams.net" modified="2024-03-14T13:14:04.241Z" agent="Mozilla/5.0 (Windows NT 10.0; Win64; x64) AppleWebKit/537.36 (KHTML, like Gecko) Chrome/122.0.0.0 Safari/537.36" etag="1Kzb4dSXMys4npfdsP3F" version="24.0.4" type="device">
  <diagram name="Страница — 1" id="-xD0JruPJm6aJf6MQ19c">
    <mxGraphModel dx="1434" dy="738" grid="1" gridSize="10" guides="1" tooltips="1" connect="1" arrows="1" fold="1" page="1" pageScale="1" pageWidth="827" pageHeight="1169" math="0" shadow="0">
      <root>
        <mxCell id="0" />
        <mxCell id="1" parent="0" />
        <mxCell id="OZ1LI7Kp9uaDfPN50s_J-4" value="&lt;div&gt;&lt;br&gt;&lt;/div&gt;&lt;div&gt;Record&lt;/div&gt;" style="rounded=0;whiteSpace=wrap;html=1;" parent="1" vertex="1">
          <mxGeometry x="40" y="80" width="200" height="60" as="geometry" />
        </mxCell>
        <mxCell id="OZ1LI7Kp9uaDfPN50s_J-7" value="- name: str&lt;div&gt;- phone: str&lt;/div&gt;&lt;div&gt;- birthday: str&lt;/div&gt;" style="rounded=0;whiteSpace=wrap;html=1;" parent="1" vertex="1">
          <mxGeometry x="40" y="140" width="200" height="70" as="geometry" />
        </mxCell>
        <mxCell id="OZ1LI7Kp9uaDfPN50s_J-8" value="+__init__(name: str, phone: str, birthday: str = None)&lt;div&gt;+ add_birthday(birthday: str): void&lt;/div&gt;" style="rounded=0;whiteSpace=wrap;html=1;" parent="1" vertex="1">
          <mxGeometry x="40" y="210" width="200" height="60" as="geometry" />
        </mxCell>
        <mxCell id="OZ1LI7Kp9uaDfPN50s_J-9" value="Birthday" style="rounded=0;whiteSpace=wrap;html=1;" parent="1" vertex="1">
          <mxGeometry x="40" y="320" width="200" height="60" as="geometry" />
        </mxCell>
        <mxCell id="OZ1LI7Kp9uaDfPN50s_J-10" value="- day: int&lt;div&gt;- month: int&lt;/div&gt;&lt;div&gt;- yers: int&lt;/div&gt;" style="rounded=0;whiteSpace=wrap;html=1;" parent="1" vertex="1">
          <mxGeometry x="40" y="380" width="200" height="60" as="geometry" />
        </mxCell>
        <mxCell id="OZ1LI7Kp9uaDfPN50s_J-11" value="AddressBook" style="rounded=0;whiteSpace=wrap;html=1;" parent="1" vertex="1">
          <mxGeometry x="40" y="490" width="200" height="60" as="geometry" />
        </mxCell>
        <mxCell id="OZ1LI7Kp9uaDfPN50s_J-12" value="- contacts: list" style="rounded=0;whiteSpace=wrap;html=1;" parent="1" vertex="1">
          <mxGeometry x="40" y="550" width="200" height="60" as="geometry" />
        </mxCell>
        <mxCell id="OZ1LI7Kp9uaDfPN50s_J-13" value="+ __init__()&lt;div&gt;+ get_upcoming_birthdays(): list&lt;/div&gt;" style="rounded=0;whiteSpace=wrap;html=1;" parent="1" vertex="1">
          <mxGeometry x="40" y="610" width="200" height="60" as="geometry" />
        </mxCell>
      </root>
    </mxGraphModel>
  </diagram>
</mxfile>
